<svg width="143" height="143" viewBox="0 0 143 143" fill="none" xmlns="http://www.w3.org/2000/svg">
<g clip-path="url(#clip0_17_31)">
<circle cx="71.5" cy="71.5" r="71.5" fill="#E4E4E4"/>
<g clip-path="url(#clip1_17_31)">
<path d="M52.014 51.4706C55.0431 51.4706 57.4987 49.015 57.4987 45.9859C57.4987 42.9568 55.0431 40.5012 52.014 40.5012C48.9849 40.5012 46.5293 42.9568 46.5293 45.9859C46.5293 49.015 48.9849 51.4706 52.014 51.4706Z" fill="url(#paint0_linear_17_31)"/>
<path d="M46.5293 45.9859C46.5293 49.015 48.9849 51.4706 52.014 51.4706C55.0431 51.4706 57.4987 49.015 57.4987 45.9859C57.4987 45.3298 57.3831 44.701 57.1719 44.1178H46.8561C46.6449 44.7009 46.5293 45.3298 46.5293 45.9859Z" fill="url(#paint1_linear_17_31)"/>
<path d="M48.1358 49.8642C50.2776 52.0061 53.7504 52.0061 55.8924 49.8642C58.0342 47.7224 58.0342 44.2496 55.8924 42.1076C55.4284 41.6437 54.902 41.2807 54.3403 41.0178L47.0459 48.3122C47.309 48.8739 47.672 49.4003 48.1358 49.8642Z" fill="url(#paint2_linear_17_31)"/>
<path d="M98.2493 44.7646C100.239 44.7646 101.852 43.1518 101.852 41.1623C101.852 39.1728 100.239 37.56 98.2493 37.56C96.2598 37.56 94.647 39.1728 94.647 41.1623C94.647 43.1518 96.2598 44.7646 98.2493 44.7646Z" fill="url(#paint3_linear_17_31)"/>
<path d="M94.647 41.1623C94.647 43.1518 96.2597 44.7646 98.2493 44.7646C100.239 44.7646 101.852 43.1518 101.852 41.1623C101.852 40.7314 101.776 40.3184 101.637 39.9353H94.8616C94.7229 40.3184 94.647 40.7315 94.647 41.1623Z" fill="url(#paint4_linear_17_31)"/>
<path d="M95.7021 43.7096C97.1089 45.1165 99.3898 45.1165 100.797 43.7096C102.203 42.3028 102.203 40.0219 100.797 38.6151C100.492 38.3104 100.146 38.0719 99.7773 37.8994L94.9863 42.6904C95.1589 43.0592 95.3973 43.4049 95.7021 43.7096Z" fill="url(#paint5_linear_17_31)"/>
<path d="M65.5881 42.5294H76.4116V62.4118H65.5881V42.5294Z" fill="url(#paint6_linear_17_31)"/>
<path d="M67.5293 42.5294H74.4704V62.4118H67.5293V42.5294Z" fill="url(#paint7_linear_17_31)"/>
<path d="M67.5293 42.5294H74.4704V62.4118H67.5293V42.5294Z" fill="url(#paint8_linear_17_31)"/>
<path d="M65.5881 42.5294H76.4116V62.4118H65.5881V42.5294Z" fill="url(#paint9_linear_17_31)"/>
<path d="M85.3023 43.6408C84.3905 43.6408 83.5138 43.4921 82.6929 43.221C82.7269 43.4832 82.7465 43.7501 82.7465 44.0215C82.7465 47.4154 79.9951 50.1665 76.6014 50.1665C75.0647 50.1665 73.6609 49.6011 72.5836 48.6688C71.2962 51.5995 68.37 53.6471 64.9639 53.6471C60.5093 53.6471 56.8726 50.1464 56.6541 45.7459C51.9921 45.1867 48.3774 41.2207 48.3774 36.408C48.3771 31.2122 52.5893 27 57.7851 27H85.3023C85.3023 27 93.6227 30.7251 93.6227 35.3204C93.6227 39.9157 89.8976 43.6408 85.3023 43.6408Z" fill="url(#paint10_linear_17_31)"/>
<path d="M85.3023 43.6408C84.3905 43.6408 83.5138 43.4921 82.6928 43.221C82.7269 43.4832 82.7465 43.7501 82.7465 44.0215C82.7465 47.4154 79.9951 50.1665 76.6014 50.1665C76.2111 50.1665 75.8294 50.1296 75.4595 50.0599V27H85.3027C89.8979 27 93.6231 30.7251 93.6231 35.3204C93.6231 39.9157 89.8976 43.6408 85.3023 43.6408Z" fill="url(#paint11_linear_17_31)"/>
<path d="M82.7463 44.0215C82.7463 43.7506 82.7289 43.4841 82.6952 43.2231C80.1969 42.4009 78.2218 40.4257 77.3995 37.9274C77.1385 37.8937 76.872 37.8762 76.6011 37.8762C73.2078 37.8762 70.4561 40.6279 70.4561 44.0213C70.4561 47.4146 73.2078 50.1663 76.6011 50.1663C79.9946 50.1667 82.7463 47.4148 82.7463 44.0215Z" fill="url(#paint12_linear_17_31)"/>
<path d="M70.4559 44.0215C70.4559 42.6575 70.9008 41.397 71.6524 40.3779C70.1362 38.332 67.7055 37.0062 64.9635 37.0062C60.3682 37.0062 56.6431 40.7313 56.6431 45.3266C56.6431 49.9219 60.3682 53.6471 64.9635 53.6471C68.3688 53.6471 71.2968 51.6012 72.5835 48.6711C71.2804 47.5443 70.4559 45.8792 70.4559 44.0215Z" fill="url(#paint13_linear_17_31)"/>
<path d="M70.4559 44.0215C70.4559 42.6576 70.9008 41.397 71.6524 40.3779C70.5549 38.8966 68.978 37.7937 67.1506 37.2978C66.7026 42.0768 62.6805 45.8162 57.785 45.8162C57.4022 45.8162 57.0247 45.7934 56.6538 45.7488C56.8737 50.1482 60.5095 53.6471 64.9635 53.6471C68.3688 53.6471 71.2968 51.6013 72.5835 48.6711C71.2804 47.5444 70.4559 45.8792 70.4559 44.0215Z" fill="url(#paint14_linear_17_31)"/>
<path d="M77.4258 38.941C79.4153 38.941 81.0281 37.3282 81.0281 35.3387C81.0281 33.3493 79.4153 31.7365 77.4258 31.7365C75.4363 31.7365 73.8235 33.3493 73.8235 35.3387C73.8235 37.3282 75.4363 38.941 77.4258 38.941Z" fill="url(#paint15_linear_17_31)"/>
<path d="M73.8235 35.3388C73.8235 37.3283 75.4363 38.9411 77.4258 38.9411C79.4153 38.9411 81.0281 37.3283 81.0281 35.3388C81.0281 34.9078 80.9522 34.4949 80.8135 34.1118H74.0381C73.8994 34.4949 73.8235 34.908 73.8235 35.3388Z" fill="url(#paint16_linear_17_31)"/>
<path d="M74.8786 37.8861C76.2854 39.2929 78.5663 39.2929 79.9731 37.8861C81.38 36.4793 81.38 34.1984 79.9731 32.7916C79.6684 32.4868 79.3227 32.2484 78.9538 32.0758L74.1628 36.8668C74.3354 37.2356 74.5738 37.5813 74.8786 37.8861Z" fill="url(#paint17_linear_17_31)"/>
<path d="M113.742 108.168C113.674 108.124 113.606 108.079 113.538 108.035C102.932 101.059 94.3365 91.1541 88.5419 79.47L79.1676 60.5723C78.5508 59.329 76.8541 58.8559 75.5589 59.5662C72.7612 61.1006 69.2397 61.1006 66.4419 59.5662C65.1468 58.8559 63.4501 59.329 62.8333 60.5723L53.4588 79.4701C47.6625 91.1541 39.0687 101.059 28.4623 108.035C28.3945 108.079 28.3268 108.124 28.259 108.168C26.6985 109.192 26 110.626 26 112.044C26 114.553 28.1895 117 31.6476 117H110.351C115.765 117 118.066 111.002 113.742 108.168Z" fill="url(#paint18_linear_17_31)"/>
<path d="M103.028 108.047C102.977 108.002 102.926 107.956 102.875 107.912C94.9277 100.839 88.4867 90.7988 84.1447 78.9541L77.1201 59.7967C77.043 59.5867 76.9418 59.4003 76.825 59.2357C76.3937 59.2422 75.9571 59.3479 75.5587 59.5664C72.7609 61.1008 69.2394 61.1008 66.4417 59.5664C66.0432 59.3477 65.6066 59.2422 65.1751 59.2357C65.0583 59.4005 64.957 59.5867 64.8801 59.7967L57.8555 78.9541C53.512 90.7988 47.0724 100.839 39.1247 107.912C39.0739 107.956 39.0231 108.002 38.9724 108.047C37.803 109.085 37.2795 110.538 37.2795 111.976C37.2797 114.519 38.9204 117 41.5117 117H100.487C104.544 117 106.268 110.919 103.028 108.047Z" fill="url(#paint19_linear_17_31)"/>
<path d="M103.028 108.047C102.977 108.002 102.926 107.956 102.875 107.912C94.9277 100.839 88.4867 90.7988 84.1447 78.9541L77.1201 59.7967C77.043 59.5867 76.9418 59.4003 76.825 59.2357C76.3937 59.2422 75.9571 59.3479 75.5587 59.5664C72.7609 61.1008 69.2394 61.1008 66.4417 59.5664C66.0432 59.3477 65.6066 59.2422 65.1751 59.2357C65.0583 59.4005 64.957 59.5867 64.8801 59.7967L57.8555 78.9541C53.512 90.7988 47.0724 100.839 39.1247 107.912C39.0739 107.956 39.0231 108.002 38.9724 108.047C37.803 109.085 37.2795 110.538 37.2795 111.976C37.2797 114.519 38.9204 117 41.5117 117H100.487C104.544 117 106.268 110.919 103.028 108.047Z" fill="url(#paint20_linear_17_31)"/>
<path d="M48.6401 117H96.9677C89.9281 106.122 76.3305 82.5688 74.2663 60.1447C72.7464 60.6944 71.0962 60.8449 69.5035 60.5968L64.3448 80.4382C63.6415 83.1428 64.174 86.02 65.7982 88.294C68.0856 91.4964 68.1447 95.7811 65.9464 99.0453C62.4869 104.182 56.5488 111.722 48.6401 117Z" fill="url(#paint21_linear_17_31)"/>
<path d="M113.742 108.168C113.674 108.124 113.606 108.079 113.538 108.035C102.932 101.059 94.3364 91.1541 88.5419 79.47L79.1676 60.5723C78.5509 59.329 76.8541 58.8559 75.559 59.5662C73.6363 60.6206 71.3719 60.9504 69.2354 60.5555V117H110.351C115.765 117 118.066 111.002 113.742 108.168Z" fill="url(#paint22_linear_17_31)"/>
<path d="M28.4623 108.035C28.3945 108.079 28.3268 108.124 28.259 108.168C26.6985 109.192 26 110.626 26 112.044C26 114.553 28.1895 117 31.6476 117H110.351C115.765 117 118.066 111.002 113.742 108.168C113.674 108.124 113.606 108.079 113.538 108.035C106.592 103.466 100.508 97.6406 95.5089 90.8823H46.4911C41.4916 97.6406 35.4087 103.466 28.4623 108.035Z" fill="url(#paint23_linear_17_31)"/>
<path d="M113.742 108.168C113.674 108.124 113.606 108.079 113.538 108.035C102.932 101.059 94.3365 91.1541 88.5421 79.47L79.1678 60.5723C78.5511 59.329 76.8543 58.8559 75.5592 59.5662C72.7614 61.1006 69.2399 61.1006 66.4422 59.5662C65.1471 58.8559 63.4503 59.329 62.8335 60.5723L61.6768 62.9042V78.7059L99.9709 117H110.352C115.766 117 118.066 111.002 113.742 108.168Z" fill="url(#paint24_linear_17_31)"/>
<path d="M77.3675 57.717L74.3929 58.3436C72.1559 58.8148 69.8454 58.8148 67.6085 58.3436L64.6339 57.717C61.1013 56.9728 57.7791 59.6682 57.7791 63.2783V67.7594C57.7791 68.5906 58.4528 69.2643 59.2842 69.2643C60.1153 69.2643 60.7893 69.9381 60.7893 70.7695V76.851C60.7893 78.2467 61.9206 79.3781 63.3163 79.3781C64.7121 79.3781 65.8434 78.2467 65.8434 76.851V72.3191C65.8434 70.632 67.2111 69.2643 68.8981 69.2643H70.3701C72.0571 69.2643 73.4248 70.632 73.4248 72.3191C73.4248 73.7148 74.5561 74.8461 75.9518 74.8461C77.3475 74.8461 78.4789 73.7148 78.4789 72.3191C78.4789 70.632 79.8465 69.2643 81.5336 69.2643H82.7174C83.5485 69.2643 84.2225 68.5906 84.2225 67.7594V63.2783C84.2223 59.6682 80.9001 56.973 77.3675 57.717Z" fill="url(#paint25_linear_17_31)"/>
<path d="M68.8979 69.2645H70.3698C72.0569 69.2645 73.4246 70.6322 73.4246 72.3192C73.4246 73.7149 74.5559 74.8463 75.9516 74.8463C77.3473 74.8463 78.4787 73.7149 78.4787 72.3192C78.4787 70.6322 79.8463 69.2645 81.5334 69.2645H82.7171C83.5483 69.2645 84.2221 68.5908 84.2221 67.7596V63.2785C84.2221 59.6682 80.9 56.973 77.3673 57.7172L74.3927 58.3438C72.1557 58.815 69.8452 58.815 67.6083 58.3438L65.843 57.972V72.3194C65.8432 70.6322 67.2108 69.2645 68.8979 69.2645Z" fill="url(#paint26_linear_17_31)"/>
<path d="M77.3675 57.717L74.3929 58.3437C72.8302 58.6728 71.2316 58.7712 69.6472 58.6405V69.2645H70.3699C72.0569 69.2645 73.4246 70.6322 73.4246 72.3192C73.4246 73.7149 74.5559 74.8463 75.9516 74.8463C77.3473 74.8463 78.4787 73.7149 78.4787 72.3192C78.4787 70.6322 79.8463 69.2645 81.5334 69.2645H82.7172C83.5483 69.2645 84.2221 68.5908 84.2221 67.7596V63.2785C84.2223 59.6682 80.9 56.973 77.3675 57.717Z" fill="url(#paint27_linear_17_31)"/>
<path d="M93.0178 60.1828C90.852 57.7433 87.8994 56.1205 84.6284 56.1235C83.4988 56.1245 82.9652 57.5359 83.8209 58.2732C85.2556 59.5092 86.3652 61.1721 86.5087 62.9206C86.6636 64.8092 88.2594 66.2539 90.1544 66.2539H90.2624C93.4071 66.2539 95.1056 62.5347 93.0178 60.1828Z" fill="url(#paint28_linear_17_31)"/>
<path d="M88.8007 44.799C86.2891 46.8808 84.5673 49.7769 84.4595 53.0462C84.4222 54.1752 85.8148 54.7563 86.5806 53.9261C87.8646 52.5341 89.5641 51.4814 91.3164 51.3972C93.2091 51.3064 94.7071 49.7603 94.7714 47.8666C94.7726 47.8306 94.7738 47.7946 94.7751 47.7588C94.8815 44.6156 91.2218 42.792 88.8007 44.799Z" fill="url(#paint29_linear_17_31)"/>
<path d="M50.2408 52.4079C53.3486 52.2231 56.4363 53.1206 58.6417 55.33C59.4033 56.0931 58.8109 57.4057 57.7358 57.3257C55.9335 57.1916 54.0626 57.565 52.7858 58.6482C51.4067 59.818 49.3549 59.7162 48.0762 58.4373C48.0518 58.413 48.0277 58.3888 48.0033 58.3644C45.8811 56.242 47.2447 52.5859 50.2408 52.4079Z" fill="url(#paint30_linear_17_31)"/>
</g>
</g>
<defs>
<linearGradient id="paint0_linear_17_31" x1="49.0624" y1="43.0343" x2="53.4732" y2="47.4452" gradientUnits="userSpaceOnUse">
<stop stop-color="#E1D3CE"/>
<stop offset="1" stop-color="#9E9797"/>
</linearGradient>
<linearGradient id="paint1_linear_17_31" x1="52.014" y1="46.0553" x2="52.014" y2="52.5072" gradientUnits="userSpaceOnUse">
<stop stop-color="#433F43" stop-opacity="0"/>
<stop offset="0.3174" stop-color="#3B373B" stop-opacity="0.317"/>
<stop offset="0.8224" stop-color="#242324" stop-opacity="0.822"/>
<stop offset="1" stop-color="#1A1A1A"/>
</linearGradient>
<linearGradient id="paint2_linear_17_31" x1="52.0608" y1="46.0268" x2="56.8622" y2="50.8282" gradientUnits="userSpaceOnUse">
<stop stop-color="#433F43" stop-opacity="0"/>
<stop offset="0.3174" stop-color="#3B373B" stop-opacity="0.317"/>
<stop offset="0.8224" stop-color="#242324" stop-opacity="0.822"/>
<stop offset="1" stop-color="#1A1A1A"/>
</linearGradient>
<linearGradient id="paint3_linear_17_31" x1="96.3107" y1="39.2238" x2="99.2077" y2="42.1207" gradientUnits="userSpaceOnUse">
<stop stop-color="#E1D3CE"/>
<stop offset="1" stop-color="#9E9797"/>
</linearGradient>
<linearGradient id="paint4_linear_17_31" x1="98.2493" y1="41.208" x2="98.2493" y2="45.4456" gradientUnits="userSpaceOnUse">
<stop stop-color="#433F43" stop-opacity="0"/>
<stop offset="0.3174" stop-color="#3B373B" stop-opacity="0.317"/>
<stop offset="0.8224" stop-color="#242324" stop-opacity="0.822"/>
<stop offset="1" stop-color="#1A1A1A"/>
</linearGradient>
<linearGradient id="paint5_linear_17_31" x1="98.2722" y1="41.1871" x2="101.426" y2="44.3407" gradientUnits="userSpaceOnUse">
<stop stop-color="#433F43" stop-opacity="0"/>
<stop offset="0.3174" stop-color="#3B373B" stop-opacity="0.317"/>
<stop offset="0.8224" stop-color="#242324" stop-opacity="0.822"/>
<stop offset="1" stop-color="#1A1A1A"/>
</linearGradient>
<linearGradient id="paint6_linear_17_31" x1="66.7059" y1="52.4705" x2="74.5025" y2="52.4705" gradientUnits="userSpaceOnUse">
<stop stop-color="#E1D3CE"/>
<stop offset="1" stop-color="#9E9797"/>
</linearGradient>
<linearGradient id="paint7_linear_17_31" x1="67.5757" y1="55.5754" x2="76.3992" y2="47.5752" gradientUnits="userSpaceOnUse">
<stop stop-color="#433F43" stop-opacity="0"/>
<stop offset="0.3174" stop-color="#3B373B" stop-opacity="0.317"/>
<stop offset="0.8224" stop-color="#242324" stop-opacity="0.822"/>
<stop offset="1" stop-color="#1A1A1A"/>
</linearGradient>
<linearGradient id="paint8_linear_17_31" x1="70.1612" y1="54.5822" x2="66.7493" y2="63.1705" gradientUnits="userSpaceOnUse">
<stop stop-color="#433F43" stop-opacity="0"/>
<stop offset="0.3174" stop-color="#3B373B" stop-opacity="0.317"/>
<stop offset="0.8224" stop-color="#242324" stop-opacity="0.822"/>
<stop offset="1" stop-color="#1A1A1A"/>
</linearGradient>
<linearGradient id="paint9_linear_17_31" x1="72.0178" y1="56.6017" x2="70.0177" y2="48.4841" gradientUnits="userSpaceOnUse">
<stop stop-color="#433F43" stop-opacity="0"/>
<stop offset="0.3174" stop-color="#3B373B" stop-opacity="0.317"/>
<stop offset="0.8224" stop-color="#242324" stop-opacity="0.822"/>
<stop offset="1" stop-color="#1A1A1A"/>
</linearGradient>
<linearGradient id="paint10_linear_17_31" x1="68.7541" y1="30.8686" x2="76.8718" y2="49.3392" gradientUnits="userSpaceOnUse">
<stop stop-color="#E1D3CE"/>
<stop offset="1" stop-color="#9E9797"/>
</linearGradient>
<linearGradient id="paint11_linear_17_31" x1="86.9864" y1="36.4535" x2="96.2313" y2="34.6045" gradientUnits="userSpaceOnUse">
<stop stop-color="#433F43" stop-opacity="0"/>
<stop offset="0.3174" stop-color="#3B373B" stop-opacity="0.317"/>
<stop offset="0.8224" stop-color="#242324" stop-opacity="0.822"/>
<stop offset="1" stop-color="#1A1A1A"/>
</linearGradient>
<linearGradient id="paint12_linear_17_31" x1="77.1801" y1="44.2117" x2="84.6849" y2="46.2782" gradientUnits="userSpaceOnUse">
<stop stop-color="#433F43" stop-opacity="0"/>
<stop offset="0.3174" stop-color="#3B373B" stop-opacity="0.317"/>
<stop offset="0.8224" stop-color="#242324" stop-opacity="0.822"/>
<stop offset="1" stop-color="#1A1A1A"/>
</linearGradient>
<linearGradient id="paint13_linear_17_31" x1="68.327" y1="48.1505" x2="74.2003" y2="53.0811" gradientUnits="userSpaceOnUse">
<stop stop-color="#433F43" stop-opacity="0"/>
<stop offset="0.3174" stop-color="#3B373B" stop-opacity="0.317"/>
<stop offset="0.8224" stop-color="#242324" stop-opacity="0.822"/>
<stop offset="1" stop-color="#1A1A1A"/>
</linearGradient>
<linearGradient id="paint14_linear_17_31" x1="62.2472" y1="44.3344" x2="55.1051" y2="41.724" gradientUnits="userSpaceOnUse">
<stop stop-color="#433F43" stop-opacity="0"/>
<stop offset="0.3174" stop-color="#3B373B" stop-opacity="0.317"/>
<stop offset="0.8224" stop-color="#242324" stop-opacity="0.822"/>
<stop offset="1" stop-color="#1A1A1A"/>
</linearGradient>
<linearGradient id="paint15_linear_17_31" x1="75.4873" y1="33.4002" x2="78.3842" y2="36.2972" gradientUnits="userSpaceOnUse">
<stop stop-color="#E1D3CE"/>
<stop offset="1" stop-color="#9E9797"/>
</linearGradient>
<linearGradient id="paint16_linear_17_31" x1="77.4258" y1="35.3845" x2="77.4258" y2="39.6221" gradientUnits="userSpaceOnUse">
<stop stop-color="#433F43" stop-opacity="0"/>
<stop offset="0.3174" stop-color="#3B373B" stop-opacity="0.317"/>
<stop offset="0.8224" stop-color="#242324" stop-opacity="0.822"/>
<stop offset="1" stop-color="#1A1A1A"/>
</linearGradient>
<linearGradient id="paint17_linear_17_31" x1="77.4519" y1="35.3644" x2="80.6055" y2="38.5181" gradientUnits="userSpaceOnUse">
<stop stop-color="#433F43" stop-opacity="0"/>
<stop offset="0.3174" stop-color="#3B373B" stop-opacity="0.317"/>
<stop offset="0.8224" stop-color="#242324" stop-opacity="0.822"/>
<stop offset="1" stop-color="#1A1A1A"/>
</linearGradient>
<linearGradient id="paint18_linear_17_31" x1="53.2989" y1="88.0067" x2="84.5326" y2="92.2419" gradientUnits="userSpaceOnUse">
<stop stop-color="#F89580"/>
<stop offset="1" stop-color="#C4573A"/>
</linearGradient>
<linearGradient id="paint19_linear_17_31" x1="82.7587" y1="88.4922" x2="94.641" y2="81.198" gradientUnits="userSpaceOnUse">
<stop stop-color="#C4573A" stop-opacity="0"/>
<stop offset="1" stop-color="#883F2E"/>
</linearGradient>
<linearGradient id="paint20_linear_17_31" x1="57.2627" y1="87.7851" x2="34.792" y2="83.4321" gradientUnits="userSpaceOnUse">
<stop stop-color="#C4573A" stop-opacity="0"/>
<stop offset="1" stop-color="#883F2E"/>
</linearGradient>
<linearGradient id="paint21_linear_17_31" x1="70.8985" y1="91.2014" x2="53.7809" y2="86.4367" gradientUnits="userSpaceOnUse">
<stop stop-color="#C4573A" stop-opacity="0"/>
<stop offset="1" stop-color="#883F2E"/>
</linearGradient>
<linearGradient id="paint22_linear_17_31" x1="88.5275" y1="90.094" x2="94.351" y2="86.5646" gradientUnits="userSpaceOnUse">
<stop stop-color="#C4573A" stop-opacity="0"/>
<stop offset="1" stop-color="#883F2E"/>
</linearGradient>
<linearGradient id="paint23_linear_17_31" x1="71" y1="107.118" x2="71" y2="116.673" gradientUnits="userSpaceOnUse">
<stop stop-color="#C4573A" stop-opacity="0"/>
<stop offset="1" stop-color="#883F2E"/>
</linearGradient>
<linearGradient id="paint24_linear_17_31" x1="84.3008" y1="84.6356" x2="75.9479" y2="65.6945" gradientUnits="userSpaceOnUse">
<stop stop-color="#C4573A" stop-opacity="0"/>
<stop offset="1" stop-color="#883F2E"/>
</linearGradient>
<linearGradient id="paint25_linear_17_31" x1="66.8793" y1="59.8359" x2="73.0558" y2="70.6006" gradientUnits="userSpaceOnUse">
<stop stop-color="#FE9738"/>
<stop offset="1" stop-color="#F46700"/>
</linearGradient>
<linearGradient id="paint26_linear_17_31" x1="72.4148" y1="66.8338" x2="67.7088" y2="73.5397" gradientUnits="userSpaceOnUse">
<stop offset="0.0108" stop-color="#FD5426" stop-opacity="0"/>
<stop offset="0.5053" stop-color="#FA5025" stop-opacity="0.5"/>
<stop offset="1" stop-color="#EF4424"/>
</linearGradient>
<linearGradient id="paint27_linear_17_31" x1="77.4707" y1="66.2195" x2="84.1437" y2="66.2195" gradientUnits="userSpaceOnUse">
<stop offset="0.0108" stop-color="#FD5426" stop-opacity="0"/>
<stop offset="0.5053" stop-color="#FA5025" stop-opacity="0.5"/>
<stop offset="1" stop-color="#EF4424"/>
</linearGradient>
<linearGradient id="paint28_linear_17_31" x1="90.2582" y1="58.3253" x2="87.2582" y2="62.2077" gradientUnits="userSpaceOnUse">
<stop stop-color="#FD8087"/>
<stop offset="1" stop-color="#E74335"/>
</linearGradient>
<linearGradient id="paint29_linear_17_31" x1="87.438" y1="49.0736" x2="97.2372" y2="49.4063" gradientUnits="userSpaceOnUse">
<stop stop-color="#FE9738"/>
<stop offset="1" stop-color="#F46700"/>
</linearGradient>
<linearGradient id="paint30_linear_17_31" x1="51.2168" y1="52.7739" x2="53.8639" y2="58.068" gradientUnits="userSpaceOnUse">
<stop stop-color="#FD8087"/>
<stop offset="1" stop-color="#E74335"/>
</linearGradient>
<clipPath id="clip0_17_31">
<rect width="143" height="143" fill="white"/>
</clipPath>
<clipPath id="clip1_17_31">
<rect width="90" height="90" fill="white" transform="translate(26 27)"/>
</clipPath>
</defs>
</svg>
